<svg width="96" height="38" viewBox="0 0 96 38" fill="none" xmlns="http://www.w3.org/2000/svg">
<mask id="mask0_29_177" style="mask-type:luminance" maskUnits="userSpaceOnUse" x="0" y="0" width="44" height="38">
<path d="M0 0H43.5232V38H0V0Z" fill="white"/>
</mask>
<g mask="url(#mask0_29_177)">
<mask id="mask1_29_177" style="mask-type:luminance" maskUnits="userSpaceOnUse" x="0" y="0" width="44" height="38">
<path d="M21.7294 0L43.4589 38H0L21.7294 0Z" fill="white"/>
</mask>
<g mask="url(#mask1_29_177)">
<path d="M0 0H43.5232V38H0V0Z" fill="#0F172A"/>
</g>
</g>
<path d="M55.2271 27.2489C55.2271 29.2301 54.6003 30.7399 53.3487 31.7784C52.0991 32.818 50.3208 33.3373 48.0156 33.3373C45.7094 33.3373 43.928 32.818 42.6703 31.7784C41.4126 30.7399 40.7837 29.2301 40.7837 27.2489V18.5898H45.443V27.1836C45.443 27.9998 45.6604 28.6506 46.0964 29.1342C46.5313 29.6188 47.1642 29.8605 47.9952 29.8605C48.8221 29.8605 49.4581 29.6157 49.9022 29.126C50.3453 28.6343 50.5678 27.9865 50.5678 27.1836V18.5898H55.2271V27.2489Z" fill="#0F172A"/>
<path d="M66.696 22.2991V33.0843H62.0367V22.2991H57.2712V18.5898H71.437V22.2991H66.696Z" fill="#0F172A"/>
<path d="M88.0102 27.2489C88.0102 29.2301 87.3834 30.7399 86.1318 31.7784C84.8822 32.818 83.1038 33.3373 80.7987 33.3373C78.4925 33.3373 76.7111 32.818 75.4534 31.7784C74.1956 30.7399 73.5668 29.2301 73.5668 27.2489V18.5898H78.2261V27.1836C78.2261 27.9998 78.4435 28.6506 78.8794 29.1342C79.3143 29.6188 79.9473 29.8605 80.7783 29.8605C81.6052 29.8605 82.2412 29.6157 82.6853 29.126C83.1283 28.6343 83.3509 27.9865 83.3509 27.1836V18.5898H88.0102V27.2489Z" fill="#0F172A"/>
<path d="M91.3407 33.0843V18.5898H96V33.0843H91.3407Z" fill="#0F172A"/>
</svg>
